<svg xmlns="http://www.w3.org/2000/svg" width="1200" height="700" viewBox="0 0 1200 700"><rect width="1200" height="700" fill="#f6f6f3"/><rect x="20" y="20" width="1160" height="660" fill="none" stroke="#111" stroke-width="4"/><rect x="40" y="45" width="1120" height="78" fill="#111"/><text x="65" y="92" fill="#fff" font-family="Arial,sans-serif" font-size="32" font-weight="900">03 / MISSIONS COMPLETED</text><text x="1130" y="89" text-anchor="end" fill="#aaa" font-family="monospace" font-size="12">PROJECT ARCHIVE</text><g stroke="#111" fill="#fff"><rect x="40" y="145" width="535" height="225" stroke-width="3"/><rect x="625" y="145" width="535" height="225" stroke-width="3"/><rect x="40" y="395" width="345" height="225" stroke-width="3"/><rect x="427" y="395" width="345" height="225" stroke-width="3"/><rect x="814" y="395" width="346" height="225" stroke-width="3"/></g><g font-family="monospace"><text x="65" y="178" font-size="12" fill="#555">MISSION 001 / FEATURED</text><text x="65" y="222" font-family="Arial,sans-serif" font-size="34" font-weight="900">APEX-HQ</text><text x="65" y="250" font-family="Arial,sans-serif" font-size="14" fill="#333">Crime monitoring &amp; image analysis.</text><rect x="65" y="275" width="180" height="38" fill="#111"/><text x="155" y="299" text-anchor="middle" font-size="11" fill="#fff">AI · IMAGE ANALYSIS · WEB</text><text x="65" y="345" font-size="12">VIEW ON GITHUB →</text><text x="650" y="178" font-size="12" fill="#555">MISSION 002</text><text x="650" y="222" font-family="Arial,sans-serif" font-size="32" font-weight="900">RJ BOUTIQUE</text><text x="650" y="250" font-family="Arial,sans-serif" font-size="14" fill="#333">AI-powered e-commerce platform.</text><text x="650" y="299" font-size="11">AI · E-COMMERCE · TYPESCRIPT</text><text x="650" y="345" font-size="12">VIEW ON GITHUB →</text><text x="60" y="430" font-size="12" fill="#555">004</text><text x="60" y="465" font-family="Arial,sans-serif" font-size="22" font-weight="900">NEUROLEARN</text><text x="60" y="493" font-family="Arial,sans-serif" font-size="13" fill="#333">AI learning platform</text><text x="60" y="515" font-family="Arial,sans-serif" font-size="13" fill="#333">for education use cases.</text><text x="60" y="560" font-size="10" fill="#555">AI · EDUCATION · TS</text><text x="60" y="600" font-size="11">GITHUB →</text><text x="447" y="430" font-size="12" fill="#555">005</text><text x="447" y="465" font-family="Arial,sans-serif" font-size="22" font-weight="900">MEDAITON</text><text x="447" y="493" font-family="Arial,sans-serif" font-size="13" fill="#333">Healthcare-focused</text><text x="447" y="515" font-family="Arial,sans-serif" font-size="13" fill="#333">hackathon solution.</text><text x="447" y="560" font-size="10" fill="#555">AI · HEALTHCARE · TS</text><text x="447" y="600" font-size="11">GITHUB →</text><text x="834" y="430" font-size="12" fill="#555">006</text><text x="834" y="465" font-family="Arial,sans-serif" font-size="22" font-weight="900">E-PORTFOLIO</text><text x="834" y="493" font-family="Arial,sans-serif" font-size="13" fill="#333">Interactive developer</text><text x="834" y="515" font-family="Arial,sans-serif" font-size="13" fill="#333">portfolio / 3D web.</text><text x="834" y="560" font-size="10" fill="#555">WEB · 3D · UI</text><text x="834" y="600" font-size="11">GITHUB →</text></g><path d="M940 45L1160 45L1090 123L870 123Z" fill="#fff" opacity=".08"/><text x="600" y="655" text-anchor="middle" font-family="monospace" font-size="11" fill="#555">BUILD · BREAK · LEARN · REPEAT</text></svg>